<mxfile host="app.diagrams.net" agent="Mozilla/5.0 (Windows NT 10.0; Win64; x64) AppleWebKit/537.36 (KHTML, like Gecko) Chrome/129.0.0.0 Safari/537.36" version="24.7.17">
  <diagram id="sU36z3RSc2uyWs5JoE2Y" name="Page-1">
    <mxGraphModel dx="1050" dy="1415" grid="0" gridSize="10" guides="1" tooltips="1" connect="1" arrows="1" fold="1" page="1" pageScale="1" pageWidth="1100" pageHeight="850" math="0" shadow="0">
      <root>
        <mxCell id="0" />
        <mxCell id="1" parent="0" />
        <mxCell id="2" value="Inventory Manager" style="shape=umlLifeline;perimeter=lifelinePerimeter;whiteSpace=wrap;container=1;dropTarget=0;collapsible=0;recursiveResize=0;outlineConnect=0;portConstraint=eastwest;newEdgeStyle={&quot;edgeStyle&quot;:&quot;elbowEdgeStyle&quot;,&quot;elbow&quot;:&quot;vertical&quot;,&quot;curved&quot;:0,&quot;rounded&quot;:0};size=65;" parent="1" vertex="1">
          <mxGeometry width="154" height="368" as="geometry" />
        </mxCell>
        <mxCell id="3" value="Database" style="shape=umlLifeline;perimeter=lifelinePerimeter;whiteSpace=wrap;container=1;dropTarget=0;collapsible=0;recursiveResize=0;outlineConnect=0;portConstraint=eastwest;newEdgeStyle={&quot;edgeStyle&quot;:&quot;elbowEdgeStyle&quot;,&quot;elbow&quot;:&quot;vertical&quot;,&quot;curved&quot;:0,&quot;rounded&quot;:0};size=65;" parent="1" vertex="1">
          <mxGeometry x="499" y="-4" width="150" height="368" as="geometry" />
        </mxCell>
        <mxCell id="4" value="System" style="shape=umlLifeline;perimeter=lifelinePerimeter;whiteSpace=wrap;container=1;dropTarget=0;collapsible=0;recursiveResize=0;outlineConnect=0;portConstraint=eastwest;newEdgeStyle={&quot;edgeStyle&quot;:&quot;elbowEdgeStyle&quot;,&quot;elbow&quot;:&quot;vertical&quot;,&quot;curved&quot;:0,&quot;rounded&quot;:0};size=65;" parent="1" vertex="1">
          <mxGeometry x="259" width="150" height="368" as="geometry" />
        </mxCell>
        <mxCell id="5" value="Logs into the system" style="verticalAlign=bottom;edgeStyle=elbowEdgeStyle;elbow=vertical;curved=0;rounded=0;endArrow=block;" parent="1" edge="1">
          <mxGeometry x="-0.2917" y="3" relative="1" as="geometry">
            <Array as="points">
              <mxPoint x="356.5" y="108" />
            </Array>
            <mxPoint x="76.5" y="95" as="sourcePoint" />
            <mxPoint x="336" y="108" as="targetPoint" />
            <mxPoint as="offset" />
          </mxGeometry>
        </mxCell>
        <mxCell id="7" value="sucessfully update item" style="verticalAlign=bottom;edgeStyle=elbowEdgeStyle;elbow=vertical;curved=0;rounded=0;dashed=1;dashPattern=2 3;endArrow=block;" parent="1" source="3" target="4" edge="1">
          <mxGeometry x="-0.2042" y="-6" relative="1" as="geometry">
            <Array as="points">
              <mxPoint x="424.5" y="205" />
            </Array>
            <mxPoint x="590" y="174" as="sourcePoint" />
            <mxPoint x="350" y="174" as="targetPoint" />
            <mxPoint as="offset" />
          </mxGeometry>
        </mxCell>
        <mxCell id="8" value="Displays inventory data" style="verticalAlign=bottom;edgeStyle=elbowEdgeStyle;elbow=vertical;curved=0;rounded=0;dashed=1;dashPattern=2 3;endArrow=block;" parent="1" source="3" edge="1">
          <mxGeometry relative="1" as="geometry">
            <Array as="points">
              <mxPoint x="565.5" y="286" />
            </Array>
            <mxPoint x="670" y="286" as="sourcePoint" />
            <mxPoint x="332" y="286" as="targetPoint" />
          </mxGeometry>
        </mxCell>
        <mxCell id="5UgCa54MVBSaMH75htND-8" value="select the item to update" style="verticalAlign=bottom;edgeStyle=elbowEdgeStyle;elbow=vertical;curved=0;rounded=0;endArrow=block;" edge="1" parent="1">
          <mxGeometry relative="1" as="geometry">
            <Array as="points">
              <mxPoint x="77" y="157" />
            </Array>
            <mxPoint x="78.5" y="157" as="sourcePoint" />
            <mxPoint x="328.5" y="157" as="targetPoint" />
          </mxGeometry>
        </mxCell>
        <mxCell id="5UgCa54MVBSaMH75htND-9" value="update item" style="verticalAlign=bottom;edgeStyle=elbowEdgeStyle;elbow=vertical;curved=0;rounded=0;endArrow=block;" edge="1" parent="1" target="3">
          <mxGeometry relative="1" as="geometry">
            <Array as="points" />
            <mxPoint x="334.5" y="177" as="sourcePoint" />
            <mxPoint x="515" y="175" as="targetPoint" />
          </mxGeometry>
        </mxCell>
        <mxCell id="5UgCa54MVBSaMH75htND-10" value="update sucessfully" style="verticalAlign=bottom;edgeStyle=elbowEdgeStyle;elbow=vertical;curved=0;rounded=0;dashed=1;dashPattern=2 3;endArrow=block;" edge="1" parent="1">
          <mxGeometry relative="1" as="geometry">
            <Array as="points">
              <mxPoint x="319.5" y="302" />
            </Array>
            <mxPoint x="328" y="302" as="sourcePoint" />
            <mxPoint x="86" y="302" as="targetPoint" />
          </mxGeometry>
        </mxCell>
      </root>
    </mxGraphModel>
  </diagram>
</mxfile>
